# xmcd
#
# Track frame offsets: 
#        150
#        13140
#        26858
#        45462
#        62474
#        79408
#        94737
#        110060
#        129829
#        147049
#        162809
#        176512
#        186567
#        194946
#        204697
#
# Disc length: 2874 seconds
#
# Revision: 0
# Processed by: cddbd v1.5.2PL0 Copyright (c) Steve Scherf et al.
# Submitted via: ExactAudioCopy v1.0b4
#
DISCID=d90b380f
DTITLE=Various Artist - 프로듀사 OST
DYEAR=2015
DGENRE=
TTITLE0=혜이니 - 러브스윗
TTITLE1=이승철 - 달링(OST Ver.)
TTITLE2=백지영 - And…그리고
TTITLE3=김범수 - 사랑의 시작은 고백에서부터
TTITLE4=김연우 - To Be With You
TTITLE5=알리 - 우리 둘
TTITLE6=벤 - 두근두근
TTITLE7=기현 - 소울메이트
TTITLE8=하엘 - 정말로 사랑했다면
TTITLE9=루시드폴 - 봄눈
TTITLE10=짙은 - TV Show(OST Ver.)
TTITLE11=장지원 - 지그재그 스텝(Zigzag Step) 
TTITLE12=Could We?
TTITLE13=Way To Work
TTITLE14=Reunion
EXTD=
EXTT0=
EXTT1=
EXTT2=
EXTT3=
EXTT4=
EXTT5=
EXTT6=
EXTT7=
EXTT8=
EXTT9=
EXTT10=
EXTT11=
EXTT12=
EXTT13=
EXTT14=
PLAYORDER=
